<?xml version="1.0" encoding="UTF-8" standalone="no"?>
<!DOCTYPE svg PUBLIC "-//W3C//DTD SVG 1.1//EN"
 "http://www.w3.org/Graphics/SVG/1.1/DTD/svg11.dtd">
<!-- Generated by graphviz version 2.38.0 (20140413.2041)
 -->
<!-- Title: ClassDiagram Pages: 1 -->
<svg width="482pt" height="300pt"
 viewBox="0.00 0.00 481.50 300.00" xmlns="http://www.w3.org/2000/svg" xmlns:xlink="http://www.w3.org/1999/xlink">
<g id="graph0" class="graph" transform="scale(1 1) rotate(0) translate(4 296)">
<title>ClassDiagram</title>
<polygon fill="white" stroke="none" points="-4,4 -4,-296 477.5,-296 477.5,4 -4,4"/>
<!-- Blue -->
<g id="node1" class="node"><title>Blue</title>
<polygon fill="none" stroke="black" points="0,-116.5 0,-167.5 116,-167.5 116,-116.5 0,-116.5"/>
<text text-anchor="middle" x="58" y="-157.1" font-family="Consolas" font-size="8.00">Blue</text>
<polyline fill="none" stroke="black" points="0,-150.5 116,-150.5 "/>
<text text-anchor="start" x="8" y="-140.1" font-family="Consolas" font-size="8.00">&#45; Color : ConsoleColor</text>
<polyline fill="none" stroke="black" points="0,-133.5 116,-133.5 "/>
<text text-anchor="middle" x="58" y="-123.1" font-family="Consolas" font-size="8.00"> </text>
</g>
<!-- Circle -->
<g id="node2" class="node"><title>Circle</title>
<polygon fill="none" stroke="black" points="205.5,-0.5 205.5,-60.5 330.5,-60.5 330.5,-0.5 205.5,-0.5"/>
<text text-anchor="middle" x="268" y="-50.1" font-family="Consolas" font-size="8.00">Circle</text>
<polyline fill="none" stroke="black" points="205.5,-43.5 330.5,-43.5 "/>
<text text-anchor="middle" x="268" y="-33.1" font-family="Consolas" font-size="8.00"> </text>
<polyline fill="none" stroke="black" points="205.5,-26.5 330.5,-26.5 "/>
<text text-anchor="start" x="213.5" y="-16.1" font-family="Consolas" font-size="8.00">+ Circle() : </text>
<text text-anchor="start" x="213.5" y="-7.1" font-family="Consolas" font-size="8.00">+ Draw() : override void</text>
</g>
<!-- Shape -->
<g id="node5" class="node"><title>Shape</title>
<polygon fill="none" stroke="black" points="268.5,-98.5 268.5,-185.5 411.5,-185.5 411.5,-98.5 268.5,-98.5"/>
<text text-anchor="middle" x="340" y="-175.1" font-family="Consolas" font-size="8.00">Shape</text>
<polyline fill="none" stroke="black" points="268.5,-168.5 411.5,-168.5 "/>
<text text-anchor="start" x="276.5" y="-158.1" font-family="Consolas" font-size="8.00">&#45; _size : const int</text>
<text text-anchor="start" x="276.5" y="-149.1" font-family="Consolas" font-size="8.00">&#45; _drawing : ConsoleColor[,]</text>
<polyline fill="none" stroke="black" points="268.5,-142.5 411.5,-142.5 "/>
<text text-anchor="start" x="276.5" y="-132.1" font-family="Consolas" font-size="8.00">+ Shape() : </text>
<text text-anchor="start" x="276.5" y="-123.1" font-family="Consolas" font-size="8.00">+ DrawPixel() : void</text>
<text text-anchor="start" x="276.5" y="-114.1" font-family="Consolas" font-size="8.00">+ Draw() : abstract void</text>
<text text-anchor="start" x="276.5" y="-105.1" font-family="Consolas" font-size="8.00">+ DepictInConsole() : void</text>
</g>
<!-- Circle&#45;&gt;Shape -->
<g id="edge2" class="edge"><title>Circle&#45;&gt;Shape</title>
<path fill="none" stroke="black" d="M293.231,-60.6754C299.636,-69.6107 306.512,-79.7182 312.99,-89.6741"/>
<polygon fill="black" stroke="black" points="310.211,-91.8252 318.558,-98.3509 316.103,-88.0445 310.211,-91.8252"/>
</g>
<!-- IColorImplementation -->
<g id="node3" class="node"><title>IColorImplementation</title>
<polygon fill="none" stroke="black" points="134,-231.5 134,-291.5 250,-291.5 250,-231.5 134,-231.5"/>
<text text-anchor="middle" x="192" y="-281.1" font-family="Consolas" font-size="8.00">&lt;&lt;interface&gt;&gt;</text>
<text text-anchor="middle" x="192" y="-272.1" font-family="Consolas" font-size="8.00">IColorImplementation</text>
<polyline fill="none" stroke="black" points="134,-265.5 250,-265.5 "/>
<text text-anchor="start" x="142" y="-255.1" font-family="Consolas" font-size="8.00">&#45; Color : ConsoleColor</text>
<polyline fill="none" stroke="black" points="134,-248.5 250,-248.5 "/>
<text text-anchor="middle" x="192" y="-238.1" font-family="Consolas" font-size="8.00"> </text>
</g>
<!-- IColorImplementation&#45;&gt;Blue -->
<g id="edge1" class="edge"><title>IColorImplementation&#45;&gt;Blue</title>
<path fill="none" stroke="black" stroke-dasharray="5,2" d="M151.327,-224.836C130.279,-206.379 105.108,-184.307 86.2133,-167.739"/>
<polygon fill="none" stroke="black" points="149.05,-227.494 158.876,-231.455 153.665,-222.23 149.05,-227.494"/>
</g>
<!-- Red -->
<g id="node4" class="node"><title>Red</title>
<polygon fill="none" stroke="black" points="134,-116.5 134,-167.5 250,-167.5 250,-116.5 134,-116.5"/>
<text text-anchor="middle" x="192" y="-157.1" font-family="Consolas" font-size="8.00">Red</text>
<polyline fill="none" stroke="black" points="134,-150.5 250,-150.5 "/>
<text text-anchor="start" x="142" y="-140.1" font-family="Consolas" font-size="8.00">&#45; Color : ConsoleColor</text>
<polyline fill="none" stroke="black" points="134,-133.5 250,-133.5 "/>
<text text-anchor="middle" x="192" y="-123.1" font-family="Consolas" font-size="8.00"> </text>
</g>
<!-- IColorImplementation&#45;&gt;Red -->
<g id="edge4" class="edge"><title>IColorImplementation&#45;&gt;Red</title>
<path fill="none" stroke="black" stroke-dasharray="5,2" d="M192,-221.397C192,-203.689 192,-183.29 192,-167.739"/>
<polygon fill="none" stroke="black" points="188.5,-221.455 192,-231.455 195.5,-221.455 188.5,-221.455"/>
</g>
<!-- IColorImplementation&#45;&gt;Shape -->
<g id="edge5" class="edge"><title>IColorImplementation&#45;&gt;Shape</title>
<path fill="none" stroke="black" stroke-dasharray="5,2" d="M228.584,-231.455C243.11,-219.923 260.246,-206.318 276.667,-193.282"/>
<polygon fill="none" stroke="black" points="276.829,-193.153 279.041,-186.29 286.227,-185.692 284.015,-192.555 276.829,-193.153"/>
<text text-anchor="middle" x="306.5" y="-206.6" font-family="Consolas" font-size="8.00">_colorImplementation</text>
</g>
<!-- Shape&#45;&gt;Circle -->
<g id="edge3" class="edge"><title>Shape&#45;&gt;Circle</title>
<path fill="none" stroke="black" d="M299.714,-89.9757C293.028,-79.9225 286.537,-69.701 281.136,-60.6754"/>
<polygon fill="none" stroke="black" points="296.866,-92.0126 305.355,-98.3509 302.671,-88.1017 296.866,-92.0126"/>
</g>
<!-- Square -->
<g id="node6" class="node"><title>Square</title>
<polygon fill="none" stroke="black" points="348.5,-0.5 348.5,-60.5 473.5,-60.5 473.5,-0.5 348.5,-0.5"/>
<text text-anchor="middle" x="411" y="-50.1" font-family="Consolas" font-size="8.00">Square</text>
<polyline fill="none" stroke="black" points="348.5,-43.5 473.5,-43.5 "/>
<text text-anchor="middle" x="411" y="-33.1" font-family="Consolas" font-size="8.00"> </text>
<polyline fill="none" stroke="black" points="348.5,-26.5 473.5,-26.5 "/>
<text text-anchor="start" x="356.5" y="-16.1" font-family="Consolas" font-size="8.00">+ Square() : </text>
<text text-anchor="start" x="356.5" y="-7.1" font-family="Consolas" font-size="8.00">+ Draw() : override void</text>
</g>
<!-- Shape&#45;&gt;Square -->
<g id="edge7" class="edge"><title>Shape&#45;&gt;Square</title>
<path fill="none" stroke="black" d="M366.542,-89.6741C372.929,-79.7182 379.713,-69.6107 386.035,-60.6754"/>
<polygon fill="none" stroke="black" points="363.441,-88.0288 361.052,-98.3509 369.357,-91.7711 363.441,-88.0288"/>
</g>
<!-- Square&#45;&gt;Shape -->
<g id="edge6" class="edge"><title>Square&#45;&gt;Shape</title>
<path fill="none" stroke="black" d="M398.13,-60.6754C392.812,-69.701 386.414,-79.9225 379.82,-89.9757"/>
<polygon fill="black" stroke="black" points="376.874,-88.085 374.255,-98.3509 382.705,-91.9591 376.874,-88.085"/>
</g>
</g>
</svg>
