<?xml version="1.0" encoding="UTF-8" standalone="no"?>
<!DOCTYPE svg PUBLIC "-//W3C//DTD SVG 1.1//EN"
 "http://www.w3.org/Graphics/SVG/1.1/DTD/svg11.dtd">
<!-- Generated by graphviz version 2.38.0 (20140413.2041)
 -->
<!-- Title: ClassDiagram Pages: 1 -->
<svg width="337pt" height="236pt"
 viewBox="0.00 0.00 336.50 236.00" xmlns="http://www.w3.org/2000/svg" xmlns:xlink="http://www.w3.org/1999/xlink">
<g id="graph0" class="graph" transform="scale(1 1) rotate(0) translate(4 232)">
<title>ClassDiagram</title>
<polygon fill="white" stroke="none" points="-4,4 -4,-232 332.5,-232 332.5,4 -4,4"/>
<!-- BlueCircle -->
<g id="node1" class="node"><title>BlueCircle</title>
<polygon fill="none" stroke="black" points="0,-0.5 0,-51.5 62,-51.5 62,-0.5 0,-0.5"/>
<text text-anchor="middle" x="31" y="-41.1" font-family="Consolas" font-size="8.00">BlueCircle</text>
<polyline fill="none" stroke="black" points="0,-34.5 62,-34.5 "/>
<text text-anchor="middle" x="31" y="-24.1" font-family="Consolas" font-size="8.00"> </text>
<polyline fill="none" stroke="black" points="0,-17.5 62,-17.5 "/>
<text text-anchor="middle" x="31" y="-7.1" font-family="Consolas" font-size="8.00"> </text>
</g>
<!-- BlueSquare -->
<g id="node2" class="node"><title>BlueSquare</title>
<polygon fill="none" stroke="black" points="191,-0.5 191,-51.5 253,-51.5 253,-0.5 191,-0.5"/>
<text text-anchor="middle" x="222" y="-41.1" font-family="Consolas" font-size="8.00">BlueSquare</text>
<polyline fill="none" stroke="black" points="191,-34.5 253,-34.5 "/>
<text text-anchor="middle" x="222" y="-24.1" font-family="Consolas" font-size="8.00"> </text>
<polyline fill="none" stroke="black" points="191,-17.5 253,-17.5 "/>
<text text-anchor="middle" x="222" y="-7.1" font-family="Consolas" font-size="8.00"> </text>
</g>
<!-- Circle -->
<g id="node3" class="node"><title>Circle</title>
<polygon fill="none" stroke="black" points="32.5,-88.5 32.5,-139.5 157.5,-139.5 157.5,-88.5 32.5,-88.5"/>
<text text-anchor="middle" x="95" y="-129.1" font-family="Consolas" font-size="8.00">Circle</text>
<polyline fill="none" stroke="black" points="32.5,-122.5 157.5,-122.5 "/>
<text text-anchor="middle" x="95" y="-112.1" font-family="Consolas" font-size="8.00"> </text>
<polyline fill="none" stroke="black" points="32.5,-105.5 157.5,-105.5 "/>
<text text-anchor="start" x="40.5" y="-95.1" font-family="Consolas" font-size="8.00">+ Draw() : override void</text>
</g>
<!-- Circle&#45;&gt;BlueCircle -->
<g id="edge1" class="edge"><title>Circle&#45;&gt;BlueCircle</title>
<path fill="none" stroke="black" d="M70.4612,-80.0261C63.4105,-70.5516 55.8479,-60.3894 49.2488,-51.5219"/>
<polygon fill="none" stroke="black" points="67.7106,-82.1924 76.4885,-88.1252 73.3262,-78.0133 67.7106,-82.1924"/>
</g>
<!-- RedSCircle -->
<g id="node4" class="node"><title>RedSCircle</title>
<polygon fill="none" stroke="black" points="80,-0.5 80,-51.5 142,-51.5 142,-0.5 80,-0.5"/>
<text text-anchor="middle" x="111" y="-41.1" font-family="Consolas" font-size="8.00">RedSCircle</text>
<polyline fill="none" stroke="black" points="80,-34.5 142,-34.5 "/>
<text text-anchor="middle" x="111" y="-24.1" font-family="Consolas" font-size="8.00"> </text>
<polyline fill="none" stroke="black" points="80,-17.5 142,-17.5 "/>
<text text-anchor="middle" x="111" y="-7.1" font-family="Consolas" font-size="8.00"> </text>
</g>
<!-- Circle&#45;&gt;RedSCircle -->
<g id="edge4" class="edge"><title>Circle&#45;&gt;RedSCircle</title>
<path fill="none" stroke="black" d="M101.51,-78.0067C103.164,-69.121 104.905,-59.7624 106.438,-51.5219"/>
<polygon fill="none" stroke="black" points="98.0161,-77.6537 99.6279,-88.1252 104.898,-78.9341 98.0161,-77.6537"/>
</g>
<!-- RedSquare -->
<g id="node5" class="node"><title>RedSquare</title>
<polygon fill="none" stroke="black" points="271.5,-0.5 271.5,-51.5 328.5,-51.5 328.5,-0.5 271.5,-0.5"/>
<text text-anchor="middle" x="300" y="-41.1" font-family="Consolas" font-size="8.00">RedSquare</text>
<polyline fill="none" stroke="black" points="271.5,-34.5 328.5,-34.5 "/>
<text text-anchor="middle" x="300" y="-24.1" font-family="Consolas" font-size="8.00"> </text>
<polyline fill="none" stroke="black" points="271.5,-17.5 328.5,-17.5 "/>
<text text-anchor="middle" x="300" y="-7.1" font-family="Consolas" font-size="8.00"> </text>
</g>
<!-- Shape -->
<g id="node6" class="node"><title>Shape</title>
<polygon fill="none" stroke="black" points="103.5,-176.5 103.5,-227.5 228.5,-227.5 228.5,-176.5 103.5,-176.5"/>
<text text-anchor="middle" x="166" y="-217.1" font-family="Consolas" font-size="8.00">Shape</text>
<polyline fill="none" stroke="black" points="103.5,-210.5 228.5,-210.5 "/>
<text text-anchor="middle" x="166" y="-200.1" font-family="Consolas" font-size="8.00"> </text>
<polyline fill="none" stroke="black" points="103.5,-193.5 228.5,-193.5 "/>
<text text-anchor="start" x="111.5" y="-183.1" font-family="Consolas" font-size="8.00">+ Draw() : abstract void</text>
</g>
<!-- Shape&#45;&gt;Circle -->
<g id="edge3" class="edge"><title>Shape&#45;&gt;Circle</title>
<path fill="none" stroke="black" d="M139.014,-168.313C131.125,-158.757 122.64,-148.479 115.245,-139.522"/>
<polygon fill="none" stroke="black" points="136.398,-170.642 145.464,-176.125 141.796,-166.185 136.398,-170.642"/>
</g>
<!-- Square -->
<g id="node7" class="node"><title>Square</title>
<polygon fill="none" stroke="black" points="175.5,-88.5 175.5,-139.5 300.5,-139.5 300.5,-88.5 175.5,-88.5"/>
<text text-anchor="middle" x="238" y="-129.1" font-family="Consolas" font-size="8.00">Square</text>
<polyline fill="none" stroke="black" points="175.5,-122.5 300.5,-122.5 "/>
<text text-anchor="middle" x="238" y="-112.1" font-family="Consolas" font-size="8.00"> </text>
<polyline fill="none" stroke="black" points="175.5,-105.5 300.5,-105.5 "/>
<text text-anchor="start" x="183.5" y="-95.1" font-family="Consolas" font-size="8.00">+ Draw() : override void</text>
</g>
<!-- Shape&#45;&gt;Square -->
<g id="edge6" class="edge"><title>Shape&#45;&gt;Square</title>
<path fill="none" stroke="black" d="M193.366,-168.313C201.366,-158.757 209.971,-148.479 217.47,-139.522"/>
<polygon fill="none" stroke="black" points="190.561,-166.211 186.825,-176.125 195.928,-170.704 190.561,-166.211"/>
</g>
<!-- Square&#45;&gt;BlueSquare -->
<g id="edge2" class="edge"><title>Square&#45;&gt;BlueSquare</title>
<path fill="none" stroke="black" d="M231.49,-78.0067C229.836,-69.121 228.095,-59.7624 226.562,-51.5219"/>
<polygon fill="none" stroke="black" points="228.102,-78.9341 233.372,-88.1252 234.984,-77.6537 228.102,-78.9341"/>
</g>
<!-- Square&#45;&gt;RedSquare -->
<g id="edge5" class="edge"><title>Square&#45;&gt;RedSquare</title>
<path fill="none" stroke="black" d="M261.979,-79.7387C268.75,-70.3464 275.993,-60.2998 282.321,-51.5219"/>
<polygon fill="none" stroke="black" points="258.942,-77.9666 255.933,-88.1252 264.62,-82.0603 258.942,-77.9666"/>
</g>
</g>
</svg>
