<?xml version="1.0" encoding="UTF-8" standalone="no"?>
<!DOCTYPE svg PUBLIC "-//W3C//DTD SVG 1.1//EN"
 "http://www.w3.org/Graphics/SVG/1.1/DTD/svg11.dtd">
<!-- Generated by graphviz version 2.38.0 (20140413.2041)
 -->
<!-- Title: BridgePatternExample.Wrong.RedSquare Pages: 1 -->
<svg width="157pt" height="265pt"
 viewBox="0.00 0.00 157.00 265.00" xmlns="http://www.w3.org/2000/svg" xmlns:xlink="http://www.w3.org/1999/xlink">
<g id="graph0" class="graph" transform="scale(1 1) rotate(0) translate(4 261)">
<title>BridgePatternExample.Wrong.RedSquare</title>
<polygon fill="white" stroke="none" points="-4,4 -4,-261 153,-261 153,4 -4,4"/>
<!-- Node1 -->
<g id="node1" class="node"><title>Node1</title>
<g id="a_node1"><a xlink:title=" ">
<polygon fill="#bfbfbf" stroke="black" points="0,-0.5 0,-68.5 149,-68.5 149,-0.5 0,-0.5"/>
<text text-anchor="start" x="8" y="-56.5" font-family="Helvetica,sans-Serif" font-size="10.00">BridgePatternExample.Wrong.</text>
<text text-anchor="middle" x="74.5" y="-45.5" font-family="Helvetica,sans-Serif" font-size="10.00">RedSquare</text>
<polyline fill="none" stroke="black" points="0,-38.5 149,-38.5 "/>
<text text-anchor="middle" x="74.5" y="-26.5" font-family="Helvetica,sans-Serif" font-size="10.00"> </text>
<polyline fill="none" stroke="black" points="0,-19.5 149,-19.5 "/>
<text text-anchor="middle" x="74.5" y="-7.5" font-family="Helvetica,sans-Serif" font-size="10.00"> </text>
</a>
</g>
</g>
<!-- Node2 -->
<g id="node2" class="node"><title>Node2</title>
<g id="a_node2"><a xlink:href="class_bridge_pattern_example_1_1_wrong_1_1_square.html" target="_top" xlink:title=" ">
<polygon fill="white" stroke="black" points="48,-105.5 48,-162.5 101,-162.5 101,-105.5 48,-105.5"/>
<text text-anchor="middle" x="74.5" y="-150.5" font-family="Helvetica,sans-Serif" font-size="10.00">Square</text>
<polyline fill="none" stroke="black" points="48,-143.5 101,-143.5 "/>
<text text-anchor="middle" x="74.5" y="-131.5" font-family="Helvetica,sans-Serif" font-size="10.00"> </text>
<polyline fill="none" stroke="black" points="48,-124.5 101,-124.5 "/>
<text text-anchor="start" x="56" y="-112.5" font-family="Helvetica,sans-Serif" font-size="10.00">+ Draw()</text>
</a>
</g>
</g>
<!-- Node2&#45;&gt;Node1 -->
<g id="edge1" class="edge"><title>Node2&#45;&gt;Node1</title>
<path fill="none" stroke="midnightblue" d="M74.5,-95.0631C74.5,-86.3933 74.5,-77.2431 74.5,-68.7855"/>
<polygon fill="none" stroke="midnightblue" points="71.0001,-95.3212 74.5,-105.321 78.0001,-95.3212 71.0001,-95.3212"/>
</g>
<!-- Node3 -->
<g id="node3" class="node"><title>Node3</title>
<g id="a_node3"><a xlink:href="class_bridge_pattern_example_1_1_wrong_1_1_shape.html" target="_top" xlink:title=" ">
<polygon fill="white" stroke="black" points="48,-199.5 48,-256.5 101,-256.5 101,-199.5 48,-199.5"/>
<text text-anchor="middle" x="74.5" y="-244.5" font-family="Helvetica,sans-Serif" font-size="10.00">Shape</text>
<polyline fill="none" stroke="black" points="48,-237.5 101,-237.5 "/>
<text text-anchor="middle" x="74.5" y="-225.5" font-family="Helvetica,sans-Serif" font-size="10.00"> </text>
<polyline fill="none" stroke="black" points="48,-218.5 101,-218.5 "/>
<text text-anchor="start" x="56" y="-206.5" font-family="Helvetica,sans-Serif" font-size="10.00">+ Draw()</text>
</a>
</g>
</g>
<!-- Node3&#45;&gt;Node2 -->
<g id="edge2" class="edge"><title>Node3&#45;&gt;Node2</title>
<path fill="none" stroke="midnightblue" d="M74.5,-189.209C74.5,-180.293 74.5,-170.951 74.5,-162.584"/>
<polygon fill="none" stroke="midnightblue" points="71.0001,-189.397 74.5,-199.397 78.0001,-189.397 71.0001,-189.397"/>
</g>
</g>
</svg>
