<?xml version="1.0" encoding="UTF-8" standalone="no"?>
<!DOCTYPE svg PUBLIC "-//W3C//DTD SVG 1.1//EN"
 "http://www.w3.org/Graphics/SVG/1.1/DTD/svg11.dtd">
<!-- Generated by graphviz version 2.38.0 (20140413.2041)
 -->
<!-- Title: BridgePatternExample.Wrong.Square Pages: 1 -->
<svg width="324pt" height="276pt"
 viewBox="0.00 0.00 324.00 276.00" xmlns="http://www.w3.org/2000/svg" xmlns:xlink="http://www.w3.org/1999/xlink">
<g id="graph0" class="graph" transform="scale(1 1) rotate(0) translate(4 272)">
<title>BridgePatternExample.Wrong.Square</title>
<polygon fill="white" stroke="none" points="-4,4 -4,-272 320,-272 320,4 -4,4"/>
<!-- Node1 -->
<g id="node1" class="node"><title>Node1</title>
<g id="a_node1"><a xlink:title=" ">
<polygon fill="#bfbfbf" stroke="black" points="83,-105.5 83,-173.5 232,-173.5 232,-105.5 83,-105.5"/>
<text text-anchor="start" x="91" y="-161.5" font-family="Helvetica,sans-Serif" font-size="10.00">BridgePatternExample.Wrong.</text>
<text text-anchor="middle" x="157.5" y="-150.5" font-family="Helvetica,sans-Serif" font-size="10.00">Square</text>
<polyline fill="none" stroke="black" points="83,-143.5 232,-143.5 "/>
<text text-anchor="middle" x="157.5" y="-131.5" font-family="Helvetica,sans-Serif" font-size="10.00"> </text>
<polyline fill="none" stroke="black" points="83,-124.5 232,-124.5 "/>
<text text-anchor="start" x="91" y="-112.5" font-family="Helvetica,sans-Serif" font-size="10.00">+ Draw()</text>
</a>
</g>
</g>
<!-- Node3 -->
<g id="node3" class="node"><title>Node3</title>
<g id="a_node3"><a xlink:href="class_bridge_pattern_example_1_1_wrong_1_1_blue_square.html" target="_top" xlink:title=" ">
<polygon fill="white" stroke="black" points="0,-0.5 0,-68.5 149,-68.5 149,-0.5 0,-0.5"/>
<text text-anchor="start" x="8" y="-56.5" font-family="Helvetica,sans-Serif" font-size="10.00">BridgePatternExample.Wrong.</text>
<text text-anchor="middle" x="74.5" y="-45.5" font-family="Helvetica,sans-Serif" font-size="10.00">BlueSquare</text>
<polyline fill="none" stroke="black" points="0,-38.5 149,-38.5 "/>
<text text-anchor="middle" x="74.5" y="-26.5" font-family="Helvetica,sans-Serif" font-size="10.00"> </text>
<polyline fill="none" stroke="black" points="0,-19.5 149,-19.5 "/>
<text text-anchor="middle" x="74.5" y="-7.5" font-family="Helvetica,sans-Serif" font-size="10.00"> </text>
</a>
</g>
</g>
<!-- Node1&#45;&gt;Node3 -->
<g id="edge2" class="edge"><title>Node1&#45;&gt;Node3</title>
<path fill="none" stroke="midnightblue" d="M124.416,-97.4445C116.696,-87.8637 108.57,-77.7795 101.169,-68.5947"/>
<polygon fill="none" stroke="midnightblue" points="121.782,-99.7528 130.781,-105.343 127.232,-95.3605 121.782,-99.7528"/>
</g>
<!-- Node4 -->
<g id="node4" class="node"><title>Node4</title>
<g id="a_node4"><a xlink:href="class_bridge_pattern_example_1_1_wrong_1_1_red_square.html" target="_top" xlink:title=" ">
<polygon fill="white" stroke="black" points="167,-0.5 167,-68.5 316,-68.5 316,-0.5 167,-0.5"/>
<text text-anchor="start" x="175" y="-56.5" font-family="Helvetica,sans-Serif" font-size="10.00">BridgePatternExample.Wrong.</text>
<text text-anchor="middle" x="241.5" y="-45.5" font-family="Helvetica,sans-Serif" font-size="10.00">RedSquare</text>
<polyline fill="none" stroke="black" points="167,-38.5 316,-38.5 "/>
<text text-anchor="middle" x="241.5" y="-26.5" font-family="Helvetica,sans-Serif" font-size="10.00"> </text>
<polyline fill="none" stroke="black" points="167,-19.5 316,-19.5 "/>
<text text-anchor="middle" x="241.5" y="-7.5" font-family="Helvetica,sans-Serif" font-size="10.00"> </text>
</a>
</g>
</g>
<!-- Node1&#45;&gt;Node4 -->
<g id="edge3" class="edge"><title>Node1&#45;&gt;Node4</title>
<path fill="none" stroke="midnightblue" d="M190.982,-97.4445C198.796,-87.8637 207.02,-77.7795 214.51,-68.5947"/>
<polygon fill="none" stroke="midnightblue" points="188.148,-95.3815 184.541,-105.343 193.573,-99.8056 188.148,-95.3815"/>
</g>
<!-- Node2 -->
<g id="node2" class="node"><title>Node2</title>
<g id="a_node2"><a xlink:href="class_bridge_pattern_example_1_1_wrong_1_1_shape.html" target="_top" xlink:title=" ">
<polygon fill="white" stroke="black" points="131,-210.5 131,-267.5 184,-267.5 184,-210.5 131,-210.5"/>
<text text-anchor="middle" x="157.5" y="-255.5" font-family="Helvetica,sans-Serif" font-size="10.00">Shape</text>
<polyline fill="none" stroke="black" points="131,-248.5 184,-248.5 "/>
<text text-anchor="middle" x="157.5" y="-236.5" font-family="Helvetica,sans-Serif" font-size="10.00"> </text>
<polyline fill="none" stroke="black" points="131,-229.5 184,-229.5 "/>
<text text-anchor="start" x="139" y="-217.5" font-family="Helvetica,sans-Serif" font-size="10.00">+ Draw()</text>
</a>
</g>
</g>
<!-- Node2&#45;&gt;Node1 -->
<g id="edge1" class="edge"><title>Node2&#45;&gt;Node1</title>
<path fill="none" stroke="midnightblue" d="M157.5,-200.063C157.5,-191.393 157.5,-182.243 157.5,-173.786"/>
<polygon fill="none" stroke="midnightblue" points="154,-200.321 157.5,-210.321 161,-200.321 154,-200.321"/>
</g>
</g>
</svg>
