<?xml version="1.0" encoding="UTF-8" standalone="no"?>
<!DOCTYPE svg PUBLIC "-//W3C//DTD SVG 1.1//EN"
 "http://www.w3.org/Graphics/SVG/1.1/DTD/svg11.dtd">
<!-- Generated by graphviz version 2.38.0 (20140413.2041)
 -->
<!-- Title: BridgePatternExample.Wrong.Shape Pages: 1 -->
<svg width="658pt" height="287pt"
 viewBox="0.00 0.00 658.00 287.00" xmlns="http://www.w3.org/2000/svg" xmlns:xlink="http://www.w3.org/1999/xlink">
<g id="graph0" class="graph" transform="scale(1 1) rotate(0) translate(4 283)">
<title>BridgePatternExample.Wrong.Shape</title>
<polygon fill="white" stroke="none" points="-4,4 -4,-283 654,-283 654,4 -4,4"/>
<!-- Node1 -->
<g id="node1" class="node"><title>Node1</title>
<g id="a_node1"><a xlink:title=" ">
<polygon fill="#bfbfbf" stroke="black" points="250,-210.5 250,-278.5 399,-278.5 399,-210.5 250,-210.5"/>
<text text-anchor="start" x="258" y="-266.5" font-family="Helvetica,sans-Serif" font-size="10.00">BridgePatternExample.Wrong.</text>
<text text-anchor="middle" x="324.5" y="-255.5" font-family="Helvetica,sans-Serif" font-size="10.00">Shape</text>
<polyline fill="none" stroke="black" points="250,-248.5 399,-248.5 "/>
<text text-anchor="middle" x="324.5" y="-236.5" font-family="Helvetica,sans-Serif" font-size="10.00"> </text>
<polyline fill="none" stroke="black" points="250,-229.5 399,-229.5 "/>
<text text-anchor="start" x="258" y="-217.5" font-family="Helvetica,sans-Serif" font-size="10.00">+ Draw()</text>
</a>
</g>
</g>
<!-- Node2 -->
<g id="node2" class="node"><title>Node2</title>
<g id="a_node2"><a xlink:href="class_bridge_pattern_example_1_1_wrong_1_1_circle.html" target="_top" xlink:title=" ">
<polygon fill="white" stroke="black" points="167,-105.5 167,-173.5 316,-173.5 316,-105.5 167,-105.5"/>
<text text-anchor="start" x="175" y="-161.5" font-family="Helvetica,sans-Serif" font-size="10.00">BridgePatternExample.Wrong.</text>
<text text-anchor="middle" x="241.5" y="-150.5" font-family="Helvetica,sans-Serif" font-size="10.00">Circle</text>
<polyline fill="none" stroke="black" points="167,-143.5 316,-143.5 "/>
<text text-anchor="middle" x="241.5" y="-131.5" font-family="Helvetica,sans-Serif" font-size="10.00"> </text>
<polyline fill="none" stroke="black" points="167,-124.5 316,-124.5 "/>
<text text-anchor="start" x="175" y="-112.5" font-family="Helvetica,sans-Serif" font-size="10.00">+ Draw()</text>
</a>
</g>
</g>
<!-- Node1&#45;&gt;Node2 -->
<g id="edge1" class="edge"><title>Node1&#45;&gt;Node2</title>
<path fill="none" stroke="midnightblue" d="M291.416,-202.445C283.696,-192.864 275.57,-182.78 268.169,-173.595"/>
<polygon fill="none" stroke="midnightblue" points="288.782,-204.753 297.781,-210.343 294.232,-200.361 288.782,-204.753"/>
</g>
<!-- Node5 -->
<g id="node5" class="node"><title>Node5</title>
<g id="a_node5"><a xlink:href="class_bridge_pattern_example_1_1_wrong_1_1_square.html" target="_top" xlink:title=" ">
<polygon fill="white" stroke="black" points="334,-105.5 334,-173.5 483,-173.5 483,-105.5 334,-105.5"/>
<text text-anchor="start" x="342" y="-161.5" font-family="Helvetica,sans-Serif" font-size="10.00">BridgePatternExample.Wrong.</text>
<text text-anchor="middle" x="408.5" y="-150.5" font-family="Helvetica,sans-Serif" font-size="10.00">Square</text>
<polyline fill="none" stroke="black" points="334,-143.5 483,-143.5 "/>
<text text-anchor="middle" x="408.5" y="-131.5" font-family="Helvetica,sans-Serif" font-size="10.00"> </text>
<polyline fill="none" stroke="black" points="334,-124.5 483,-124.5 "/>
<text text-anchor="start" x="342" y="-112.5" font-family="Helvetica,sans-Serif" font-size="10.00">+ Draw()</text>
</a>
</g>
</g>
<!-- Node1&#45;&gt;Node5 -->
<g id="edge4" class="edge"><title>Node1&#45;&gt;Node5</title>
<path fill="none" stroke="midnightblue" d="M357.982,-202.445C365.796,-192.864 374.02,-182.78 381.51,-173.595"/>
<polygon fill="none" stroke="midnightblue" points="355.148,-200.382 351.541,-210.343 360.573,-204.806 355.148,-200.382"/>
</g>
<!-- Node3 -->
<g id="node3" class="node"><title>Node3</title>
<g id="a_node3"><a xlink:href="class_bridge_pattern_example_1_1_wrong_1_1_blue_circle.html" target="_top" xlink:title=" ">
<polygon fill="white" stroke="black" points="0,-0.5 0,-68.5 149,-68.5 149,-0.5 0,-0.5"/>
<text text-anchor="start" x="8" y="-56.5" font-family="Helvetica,sans-Serif" font-size="10.00">BridgePatternExample.Wrong.</text>
<text text-anchor="middle" x="74.5" y="-45.5" font-family="Helvetica,sans-Serif" font-size="10.00">BlueCircle</text>
<polyline fill="none" stroke="black" points="0,-38.5 149,-38.5 "/>
<text text-anchor="middle" x="74.5" y="-26.5" font-family="Helvetica,sans-Serif" font-size="10.00"> </text>
<polyline fill="none" stroke="black" points="0,-19.5 149,-19.5 "/>
<text text-anchor="middle" x="74.5" y="-7.5" font-family="Helvetica,sans-Serif" font-size="10.00"> </text>
</a>
</g>
</g>
<!-- Node2&#45;&gt;Node3 -->
<g id="edge2" class="edge"><title>Node2&#45;&gt;Node3</title>
<path fill="none" stroke="midnightblue" d="M179.107,-100.018C162.355,-89.6862 144.391,-78.6062 128.158,-68.5947"/>
<polygon fill="none" stroke="midnightblue" points="177.392,-103.073 187.741,-105.343 181.067,-97.1147 177.392,-103.073"/>
</g>
<!-- Node4 -->
<g id="node4" class="node"><title>Node4</title>
<g id="a_node4"><a xlink:href="class_bridge_pattern_example_1_1_wrong_1_1_red_s_circle.html" target="_top" xlink:title=" ">
<polygon fill="white" stroke="black" points="167,-0.5 167,-68.5 316,-68.5 316,-0.5 167,-0.5"/>
<text text-anchor="start" x="175" y="-56.5" font-family="Helvetica,sans-Serif" font-size="10.00">BridgePatternExample.Wrong.</text>
<text text-anchor="middle" x="241.5" y="-45.5" font-family="Helvetica,sans-Serif" font-size="10.00">RedSCircle</text>
<polyline fill="none" stroke="black" points="167,-38.5 316,-38.5 "/>
<text text-anchor="middle" x="241.5" y="-26.5" font-family="Helvetica,sans-Serif" font-size="10.00"> </text>
<polyline fill="none" stroke="black" points="167,-19.5 316,-19.5 "/>
<text text-anchor="middle" x="241.5" y="-7.5" font-family="Helvetica,sans-Serif" font-size="10.00"> </text>
</a>
</g>
</g>
<!-- Node2&#45;&gt;Node4 -->
<g id="edge3" class="edge"><title>Node2&#45;&gt;Node4</title>
<path fill="none" stroke="midnightblue" d="M241.5,-95.1362C241.5,-86.256 241.5,-77.0447 241.5,-68.5947"/>
<polygon fill="none" stroke="midnightblue" points="238,-95.3432 241.5,-105.343 245,-95.3432 238,-95.3432"/>
</g>
<!-- Node6 -->
<g id="node6" class="node"><title>Node6</title>
<g id="a_node6"><a xlink:href="class_bridge_pattern_example_1_1_wrong_1_1_blue_square.html" target="_top" xlink:title=" ">
<polygon fill="white" stroke="black" points="334,-0.5 334,-68.5 483,-68.5 483,-0.5 334,-0.5"/>
<text text-anchor="start" x="342" y="-56.5" font-family="Helvetica,sans-Serif" font-size="10.00">BridgePatternExample.Wrong.</text>
<text text-anchor="middle" x="408.5" y="-45.5" font-family="Helvetica,sans-Serif" font-size="10.00">BlueSquare</text>
<polyline fill="none" stroke="black" points="334,-38.5 483,-38.5 "/>
<text text-anchor="middle" x="408.5" y="-26.5" font-family="Helvetica,sans-Serif" font-size="10.00"> </text>
<polyline fill="none" stroke="black" points="334,-19.5 483,-19.5 "/>
<text text-anchor="middle" x="408.5" y="-7.5" font-family="Helvetica,sans-Serif" font-size="10.00"> </text>
</a>
</g>
</g>
<!-- Node5&#45;&gt;Node6 -->
<g id="edge5" class="edge"><title>Node5&#45;&gt;Node6</title>
<path fill="none" stroke="midnightblue" d="M408.5,-95.1362C408.5,-86.256 408.5,-77.0447 408.5,-68.5947"/>
<polygon fill="none" stroke="midnightblue" points="405,-95.3432 408.5,-105.343 412,-95.3432 405,-95.3432"/>
</g>
<!-- Node7 -->
<g id="node7" class="node"><title>Node7</title>
<g id="a_node7"><a xlink:href="class_bridge_pattern_example_1_1_wrong_1_1_red_square.html" target="_top" xlink:title=" ">
<polygon fill="white" stroke="black" points="501,-0.5 501,-68.5 650,-68.5 650,-0.5 501,-0.5"/>
<text text-anchor="start" x="509" y="-56.5" font-family="Helvetica,sans-Serif" font-size="10.00">BridgePatternExample.Wrong.</text>
<text text-anchor="middle" x="575.5" y="-45.5" font-family="Helvetica,sans-Serif" font-size="10.00">RedSquare</text>
<polyline fill="none" stroke="black" points="501,-38.5 650,-38.5 "/>
<text text-anchor="middle" x="575.5" y="-26.5" font-family="Helvetica,sans-Serif" font-size="10.00"> </text>
<polyline fill="none" stroke="black" points="501,-19.5 650,-19.5 "/>
<text text-anchor="middle" x="575.5" y="-7.5" font-family="Helvetica,sans-Serif" font-size="10.00"> </text>
</a>
</g>
</g>
<!-- Node5&#45;&gt;Node7 -->
<g id="edge6" class="edge"><title>Node5&#45;&gt;Node7</title>
<path fill="none" stroke="midnightblue" d="M470.893,-100.018C487.645,-89.6862 505.609,-78.6062 521.842,-68.5947"/>
<polygon fill="none" stroke="midnightblue" points="468.933,-97.1147 462.259,-105.343 472.608,-103.073 468.933,-97.1147"/>
</g>
</g>
</svg>
