<?xml version="1.0" encoding="UTF-8" standalone="no"?>
<!DOCTYPE svg PUBLIC "-//W3C//DTD SVG 1.1//EN"
 "http://www.w3.org/Graphics/SVG/1.1/DTD/svg11.dtd">
<!-- Generated by graphviz version 2.38.0 (20140413.2041)
 -->
<!-- Title: Graphical Class Hierarchy Pages: 1 -->
<svg width="527pt" height="186pt"
 viewBox="0.00 0.00 527.00 186.00" xmlns="http://www.w3.org/2000/svg" xmlns:xlink="http://www.w3.org/1999/xlink">
<g id="graph0" class="graph" transform="scale(1 1) rotate(0) translate(4 182)">
<title>Graphical Class Hierarchy</title>
<polygon fill="white" stroke="none" points="-4,4 -4,-182 523,-182 523,4 -4,4"/>
<!-- Node0 -->
<g id="node1" class="node"><title>Node0</title>
<g id="a_node1"><a xlink:href="class_bridge_pattern_example_1_1_wrong_1_1_shape.html" target="_top" xlink:title=" ">
<polygon fill="white" stroke="black" points="0,-73.5 0,-103.5 149,-103.5 149,-73.5 0,-73.5"/>
<text text-anchor="start" x="8" y="-91.5" font-family="Helvetica,sans-Serif" font-size="10.00">BridgePatternExample.Wrong.</text>
<text text-anchor="middle" x="74.5" y="-80.5" font-family="Helvetica,sans-Serif" font-size="10.00">Shape</text>
</a>
</g>
</g>
<!-- Node1 -->
<g id="node2" class="node"><title>Node1</title>
<g id="a_node2"><a xlink:href="class_bridge_pattern_example_1_1_wrong_1_1_circle.html" target="_top" xlink:title=" ">
<polygon fill="white" stroke="black" points="185,-98.5 185,-128.5 334,-128.5 334,-98.5 185,-98.5"/>
<text text-anchor="start" x="193" y="-116.5" font-family="Helvetica,sans-Serif" font-size="10.00">BridgePatternExample.Wrong.</text>
<text text-anchor="middle" x="259.5" y="-105.5" font-family="Helvetica,sans-Serif" font-size="10.00">Circle</text>
</a>
</g>
</g>
<!-- Node0&#45;&gt;Node1 -->
<g id="edge1" class="edge"><title>Node0&#45;&gt;Node1</title>
<path fill="none" stroke="midnightblue" d="M159.109,-99.922C167.651,-101.089 176.285,-102.268 184.711,-103.419"/>
<polygon fill="midnightblue" stroke="midnightblue" points="159.524,-96.4462 149.142,-98.5604 158.576,-103.382 159.524,-96.4462"/>
</g>
<!-- Node4 -->
<g id="node5" class="node"><title>Node4</title>
<g id="a_node5"><a xlink:href="class_bridge_pattern_example_1_1_wrong_1_1_square.html" target="_top" xlink:title=" ">
<polygon fill="white" stroke="black" points="185,-49.5 185,-79.5 334,-79.5 334,-49.5 185,-49.5"/>
<text text-anchor="start" x="193" y="-67.5" font-family="Helvetica,sans-Serif" font-size="10.00">BridgePatternExample.Wrong.</text>
<text text-anchor="middle" x="259.5" y="-56.5" font-family="Helvetica,sans-Serif" font-size="10.00">Square</text>
</a>
</g>
</g>
<!-- Node0&#45;&gt;Node4 -->
<g id="edge4" class="edge"><title>Node0&#45;&gt;Node4</title>
<path fill="none" stroke="midnightblue" d="M159.109,-77.5349C167.651,-76.4147 176.285,-75.2823 184.711,-74.1773"/>
<polygon fill="midnightblue" stroke="midnightblue" points="158.602,-74.0713 149.142,-78.842 159.512,-81.0119 158.602,-74.0713"/>
</g>
<!-- Node2 -->
<g id="node3" class="node"><title>Node2</title>
<g id="a_node3"><a xlink:href="class_bridge_pattern_example_1_1_wrong_1_1_blue_circle.html" target="_top" xlink:title=" ">
<polygon fill="white" stroke="black" points="370,-147.5 370,-177.5 519,-177.5 519,-147.5 370,-147.5"/>
<text text-anchor="start" x="378" y="-165.5" font-family="Helvetica,sans-Serif" font-size="10.00">BridgePatternExample.Wrong.</text>
<text text-anchor="middle" x="444.5" y="-154.5" font-family="Helvetica,sans-Serif" font-size="10.00">BlueCircle</text>
</a>
</g>
</g>
<!-- Node1&#45;&gt;Node2 -->
<g id="edge2" class="edge"><title>Node1&#45;&gt;Node2</title>
<path fill="none" stroke="midnightblue" d="M326.785,-131.248C346.619,-136.559 368.167,-142.329 387.287,-147.448"/>
<polygon fill="midnightblue" stroke="midnightblue" points="327.464,-127.807 316.899,-128.601 325.654,-134.569 327.464,-127.807"/>
</g>
<!-- Node3 -->
<g id="node4" class="node"><title>Node3</title>
<g id="a_node4"><a xlink:href="class_bridge_pattern_example_1_1_wrong_1_1_red_s_circle.html" target="_top" xlink:title=" ">
<polygon fill="white" stroke="black" points="370,-98.5 370,-128.5 519,-128.5 519,-98.5 370,-98.5"/>
<text text-anchor="start" x="378" y="-116.5" font-family="Helvetica,sans-Serif" font-size="10.00">BridgePatternExample.Wrong.</text>
<text text-anchor="middle" x="444.5" y="-105.5" font-family="Helvetica,sans-Serif" font-size="10.00">RedSCircle</text>
</a>
</g>
</g>
<!-- Node1&#45;&gt;Node3 -->
<g id="edge3" class="edge"><title>Node1&#45;&gt;Node3</title>
<path fill="none" stroke="midnightblue" d="M344.387,-113.5C352.838,-113.5 361.376,-113.5 369.711,-113.5"/>
<polygon fill="midnightblue" stroke="midnightblue" points="344.142,-110 334.142,-113.5 344.142,-117 344.142,-110"/>
</g>
<!-- Node5 -->
<g id="node6" class="node"><title>Node5</title>
<g id="a_node6"><a xlink:href="class_bridge_pattern_example_1_1_wrong_1_1_blue_square.html" target="_top" xlink:title=" ">
<polygon fill="white" stroke="black" points="370,-49.5 370,-79.5 519,-79.5 519,-49.5 370,-49.5"/>
<text text-anchor="start" x="378" y="-67.5" font-family="Helvetica,sans-Serif" font-size="10.00">BridgePatternExample.Wrong.</text>
<text text-anchor="middle" x="444.5" y="-56.5" font-family="Helvetica,sans-Serif" font-size="10.00">BlueSquare</text>
</a>
</g>
</g>
<!-- Node4&#45;&gt;Node5 -->
<g id="edge5" class="edge"><title>Node4&#45;&gt;Node5</title>
<path fill="none" stroke="midnightblue" d="M344.387,-64.5C352.838,-64.5 361.376,-64.5 369.711,-64.5"/>
<polygon fill="midnightblue" stroke="midnightblue" points="344.142,-61.0001 334.142,-64.5 344.142,-68.0001 344.142,-61.0001"/>
</g>
<!-- Node6 -->
<g id="node7" class="node"><title>Node6</title>
<g id="a_node7"><a xlink:href="class_bridge_pattern_example_1_1_wrong_1_1_red_square.html" target="_top" xlink:title=" ">
<polygon fill="white" stroke="black" points="370,-0.5 370,-30.5 519,-30.5 519,-0.5 370,-0.5"/>
<text text-anchor="start" x="378" y="-18.5" font-family="Helvetica,sans-Serif" font-size="10.00">BridgePatternExample.Wrong.</text>
<text text-anchor="middle" x="444.5" y="-7.5" font-family="Helvetica,sans-Serif" font-size="10.00">RedSquare</text>
</a>
</g>
</g>
<!-- Node4&#45;&gt;Node6 -->
<g id="edge6" class="edge"><title>Node4&#45;&gt;Node6</title>
<path fill="none" stroke="midnightblue" d="M326.785,-46.7515C346.619,-41.4409 368.167,-35.6712 387.287,-30.5516"/>
<polygon fill="midnightblue" stroke="midnightblue" points="325.654,-43.4311 316.899,-49.3986 327.464,-50.1929 325.654,-43.4311"/>
</g>
</g>
</svg>
