<?xml version="1.0" encoding="UTF-8" standalone="no"?>
<!DOCTYPE svg PUBLIC "-//W3C//DTD SVG 1.1//EN"
 "http://www.w3.org/Graphics/SVG/1.1/DTD/svg11.dtd">
<!-- Generated by graphviz version 2.38.0 (20140413.2041)
 -->
<!-- Title: BridgePatternExample.Correct.Shape Pages: 1 -->
<svg width="183pt" height="237pt"
 viewBox="0.00 0.00 183.00 237.00" xmlns="http://www.w3.org/2000/svg" xmlns:xlink="http://www.w3.org/1999/xlink">
<g id="graph0" class="graph" transform="scale(1 1) rotate(0) translate(4 233)">
<title>BridgePatternExample.Correct.Shape</title>
<polygon fill="white" stroke="none" points="-4,4 -4,-233 179,-233 179,4 -4,4"/>
<!-- Node1 -->
<g id="node1" class="node"><title>Node1</title>
<g id="a_node1"><a xlink:title=" ">
<polygon fill="#bfbfbf" stroke="black" points="0,-0.5 0,-112.5 152,-112.5 152,-0.5 0,-0.5"/>
<text text-anchor="start" x="8" y="-100.5" font-family="Helvetica,sans-Serif" font-size="10.00">BridgePatternExample.Correct.</text>
<text text-anchor="middle" x="76" y="-89.5" font-family="Helvetica,sans-Serif" font-size="10.00">Shape</text>
<polyline fill="none" stroke="black" points="0,-82.5 152,-82.5 "/>
<text text-anchor="start" x="8" y="-70.5" font-family="Helvetica,sans-Serif" font-size="10.00"># _drawing</text>
<text text-anchor="start" x="8" y="-59.5" font-family="Helvetica,sans-Serif" font-size="10.00"># _size</text>
<polyline fill="none" stroke="black" points="0,-52.5 152,-52.5 "/>
<text text-anchor="start" x="8" y="-40.5" font-family="Helvetica,sans-Serif" font-size="10.00">+ Shape()</text>
<text text-anchor="start" x="8" y="-29.5" font-family="Helvetica,sans-Serif" font-size="10.00">+ DrawPixel()</text>
<text text-anchor="start" x="8" y="-18.5" font-family="Helvetica,sans-Serif" font-size="10.00">+ Draw()</text>
<text text-anchor="start" x="8" y="-7.5" font-family="Helvetica,sans-Serif" font-size="10.00">+ DepictInConsole()</text>
</a>
</g>
</g>
<!-- Node2 -->
<g id="node2" class="node"><title>Node2</title>
<g id="a_node2"><a xlink:href="interface_bridge_pattern_example_1_1_correct_1_1_i_color_implementation.html" target="_top" xlink:title=" ">
<polygon fill="white" stroke="black" points="0,-160.5 0,-228.5 152,-228.5 152,-160.5 0,-160.5"/>
<text text-anchor="start" x="8" y="-216.5" font-family="Helvetica,sans-Serif" font-size="10.00">BridgePatternExample.Correct.</text>
<text text-anchor="middle" x="76" y="-205.5" font-family="Helvetica,sans-Serif" font-size="10.00">IColorImplementation</text>
<polyline fill="none" stroke="black" points="0,-198.5 152,-198.5 "/>
<text text-anchor="start" x="8" y="-186.5" font-family="Helvetica,sans-Serif" font-size="10.00">+ Color</text>
<polyline fill="none" stroke="black" points="0,-179.5 152,-179.5 "/>
<text text-anchor="middle" x="76" y="-167.5" font-family="Helvetica,sans-Serif" font-size="10.00"> </text>
</a>
</g>
</g>
<!-- Node2&#45;&gt;Node1 -->
<g id="edge1" class="edge"><title>Node2&#45;&gt;Node1</title>
<path fill="none" stroke="#404040" d="M76,-160.231C76,-149.497 76,-137.184 76,-124.898"/>
<polygon fill="none" stroke="#404040" points="76.0001,-124.68 72,-118.68 76,-112.68 80,-118.68 76.0001,-124.68"/>
<text text-anchor="middle" x="125.5" y="-134" font-family="Helvetica,sans-Serif" font-size="10.00"> &#45;_colorImplementation</text>
</g>
</g>
</svg>
