<?xml version="1.0" encoding="UTF-8" standalone="no"?>
<!DOCTYPE svg PUBLIC "-//W3C//DTD SVG 1.1//EN"
 "http://www.w3.org/Graphics/SVG/1.1/DTD/svg11.dtd">
<!-- Generated by graphviz version 2.38.0 (20140413.2041)
 -->
<!-- Title: BridgePatternExample.Correct.Square Pages: 1 -->
<svg width="183pt" height="343pt"
 viewBox="0.00 0.00 183.00 343.00" xmlns="http://www.w3.org/2000/svg" xmlns:xlink="http://www.w3.org/1999/xlink">
<g id="graph0" class="graph" transform="scale(1 1) rotate(0) translate(4 339)">
<title>BridgePatternExample.Correct.Square</title>
<polygon fill="white" stroke="none" points="-4,4 -4,-339 179,-339 179,4 -4,4"/>
<!-- Node1 -->
<g id="node1" class="node"><title>Node1</title>
<g id="a_node1"><a xlink:title=" ">
<polygon fill="#bfbfbf" stroke="black" points="0,-0.5 0,-79.5 152,-79.5 152,-0.5 0,-0.5"/>
<text text-anchor="start" x="8" y="-67.5" font-family="Helvetica,sans-Serif" font-size="10.00">BridgePatternExample.Correct.</text>
<text text-anchor="middle" x="76" y="-56.5" font-family="Helvetica,sans-Serif" font-size="10.00">Square</text>
<polyline fill="none" stroke="black" points="0,-49.5 152,-49.5 "/>
<text text-anchor="middle" x="76" y="-37.5" font-family="Helvetica,sans-Serif" font-size="10.00"> </text>
<polyline fill="none" stroke="black" points="0,-30.5 152,-30.5 "/>
<text text-anchor="start" x="8" y="-18.5" font-family="Helvetica,sans-Serif" font-size="10.00">+ Square()</text>
<text text-anchor="start" x="8" y="-7.5" font-family="Helvetica,sans-Serif" font-size="10.00">+ Draw()</text>
</a>
</g>
</g>
<!-- Node2 -->
<g id="node2" class="node"><title>Node2</title>
<g id="a_node2"><a xlink:href="class_bridge_pattern_example_1_1_correct_1_1_shape.html" target="_top" xlink:title=" ">
<polygon fill="white" stroke="black" points="25,-117.5 25,-218.5 127,-218.5 127,-117.5 25,-117.5"/>
<text text-anchor="middle" x="76" y="-206.5" font-family="Helvetica,sans-Serif" font-size="10.00">Shape</text>
<polyline fill="none" stroke="black" points="25,-199.5 127,-199.5 "/>
<text text-anchor="start" x="33" y="-187.5" font-family="Helvetica,sans-Serif" font-size="10.00"># _drawing</text>
<text text-anchor="start" x="33" y="-176.5" font-family="Helvetica,sans-Serif" font-size="10.00"># _size</text>
<polyline fill="none" stroke="black" points="25,-169.5 127,-169.5 "/>
<text text-anchor="start" x="33" y="-157.5" font-family="Helvetica,sans-Serif" font-size="10.00">+ Shape()</text>
<text text-anchor="start" x="33" y="-146.5" font-family="Helvetica,sans-Serif" font-size="10.00">+ DrawPixel()</text>
<text text-anchor="start" x="33" y="-135.5" font-family="Helvetica,sans-Serif" font-size="10.00">+ Draw()</text>
<text text-anchor="start" x="33" y="-124.5" font-family="Helvetica,sans-Serif" font-size="10.00">+ DepictInConsole()</text>
</a>
</g>
</g>
<!-- Node2&#45;&gt;Node1 -->
<g id="edge1" class="edge"><title>Node2&#45;&gt;Node1</title>
<path fill="none" stroke="midnightblue" d="M76,-107.11C76,-97.7412 76,-88.28 76,-79.5585"/>
<polygon fill="none" stroke="midnightblue" points="72.5001,-107.201 76,-117.201 79.5001,-107.201 72.5001,-107.201"/>
</g>
<!-- Node3 -->
<g id="node3" class="node"><title>Node3</title>
<g id="a_node3"><a xlink:href="interface_bridge_pattern_example_1_1_correct_1_1_i_color_implementation.html" target="_top" xlink:title=" ">
<polygon fill="white" stroke="black" points="0,-266.5 0,-334.5 152,-334.5 152,-266.5 0,-266.5"/>
<text text-anchor="start" x="8" y="-322.5" font-family="Helvetica,sans-Serif" font-size="10.00">BridgePatternExample.Correct.</text>
<text text-anchor="middle" x="76" y="-311.5" font-family="Helvetica,sans-Serif" font-size="10.00">IColorImplementation</text>
<polyline fill="none" stroke="black" points="0,-304.5 152,-304.5 "/>
<text text-anchor="start" x="8" y="-292.5" font-family="Helvetica,sans-Serif" font-size="10.00">+ Color</text>
<polyline fill="none" stroke="black" points="0,-285.5 152,-285.5 "/>
<text text-anchor="middle" x="76" y="-273.5" font-family="Helvetica,sans-Serif" font-size="10.00"> </text>
</a>
</g>
</g>
<!-- Node3&#45;&gt;Node2 -->
<g id="edge2" class="edge"><title>Node3&#45;&gt;Node2</title>
<path fill="none" stroke="#404040" d="M76,-266.232C76,-255.471 76,-243.168 76,-231.015"/>
<polygon fill="none" stroke="#404040" points="76.0001,-230.975 72,-224.975 76,-218.975 80,-224.975 76.0001,-230.975"/>
<text text-anchor="middle" x="125.5" y="-240" font-family="Helvetica,sans-Serif" font-size="10.00"> &#45;_colorImplementation</text>
</g>
</g>
</svg>
