<?xml version="1.0" encoding="UTF-8" standalone="no"?>
<!DOCTYPE svg PUBLIC "-//W3C//DTD SVG 1.1//EN"
 "http://www.w3.org/Graphics/SVG/1.1/DTD/svg11.dtd">
<!-- Generated by graphviz version 2.38.0 (20140413.2041)
 -->
<!-- Title: BridgePatternExample.Correct.Blue Pages: 1 -->
<svg width="179pt" height="160pt"
 viewBox="0.00 0.00 179.00 160.00" xmlns="http://www.w3.org/2000/svg" xmlns:xlink="http://www.w3.org/1999/xlink">
<g id="graph0" class="graph" transform="scale(1 1) rotate(0) translate(4 156)">
<title>BridgePatternExample.Correct.Blue</title>
<polygon fill="white" stroke="none" points="-4,4 -4,-156 175,-156 175,4 -4,4"/>
<!-- Node1 -->
<g id="node1" class="node"><title>Node1</title>
<g id="a_node1"><a xlink:title=" ">
<polygon fill="#bfbfbf" stroke="black" points="0,-0.5 0,-57.5 171,-57.5 171,-0.5 0,-0.5"/>
<text text-anchor="middle" x="85.5" y="-45.5" font-family="Helvetica,sans-Serif" font-size="10.00">BridgePatternExample.Correct.Blue</text>
<polyline fill="none" stroke="black" points="0,-38.5 171,-38.5 "/>
<text text-anchor="start" x="8" y="-26.5" font-family="Helvetica,sans-Serif" font-size="10.00">+ Color</text>
<polyline fill="none" stroke="black" points="0,-19.5 171,-19.5 "/>
<text text-anchor="middle" x="85.5" y="-7.5" font-family="Helvetica,sans-Serif" font-size="10.00"> </text>
</a>
</g>
</g>
<!-- Node2 -->
<g id="node2" class="node"><title>Node2</title>
<g id="a_node2"><a xlink:href="interface_bridge_pattern_example_1_1_correct_1_1_i_color_implementation.html" target="_top" xlink:title=" ">
<polygon fill="white" stroke="black" points="32,-94.5 32,-151.5 139,-151.5 139,-94.5 32,-94.5"/>
<text text-anchor="middle" x="85.5" y="-139.5" font-family="Helvetica,sans-Serif" font-size="10.00">IColorImplementation</text>
<polyline fill="none" stroke="black" points="32,-132.5 139,-132.5 "/>
<text text-anchor="start" x="40" y="-120.5" font-family="Helvetica,sans-Serif" font-size="10.00">+ Color</text>
<polyline fill="none" stroke="black" points="32,-113.5 139,-113.5 "/>
<text text-anchor="middle" x="85.5" y="-101.5" font-family="Helvetica,sans-Serif" font-size="10.00"> </text>
</a>
</g>
</g>
<!-- Node2&#45;&gt;Node1 -->
<g id="edge1" class="edge"><title>Node2&#45;&gt;Node1</title>
<path fill="none" stroke="midnightblue" d="M85.5,-84.2092C85.5,-75.2929 85.5,-65.9513 85.5,-57.5836"/>
<polygon fill="none" stroke="midnightblue" points="82.0001,-84.3969 85.5,-94.397 89.0001,-84.397 82.0001,-84.3969"/>
</g>
</g>
</svg>
