<?xml version="1.0" encoding="UTF-8" standalone="no"?>
<!DOCTYPE svg PUBLIC "-//W3C//DTD SVG 1.1//EN"
 "http://www.w3.org/Graphics/SVG/1.1/DTD/svg11.dtd">
<!-- Generated by graphviz version 2.38.0 (20140413.2041)
 -->
<!-- Title: BridgePatternExample.Correct.Shape.DrawPixel Pages: 1 -->
<svg width="348pt" height="88pt"
 viewBox="0.00 0.00 348.00 88.00" xmlns="http://www.w3.org/2000/svg" xmlns:xlink="http://www.w3.org/1999/xlink">
<g id="graph0" class="graph" transform="scale(1 1) rotate(0) translate(4 84)">
<title>BridgePatternExample.Correct.Shape.DrawPixel</title>
<polygon fill="white" stroke="none" points="-4,4 -4,-84 344,-84 344,4 -4,4"/>
<!-- Node1 -->
<g id="node1" class="node"><title>Node1</title>
<g id="a_node1"><a xlink:title=" ">
<polygon fill="#bfbfbf" stroke="black" points="188,-24.5 188,-54.5 340,-54.5 340,-24.5 188,-24.5"/>
<text text-anchor="start" x="196" y="-42.5" font-family="Helvetica,sans-Serif" font-size="10.00">BridgePatternExample.Correct.</text>
<text text-anchor="middle" x="264" y="-31.5" font-family="Helvetica,sans-Serif" font-size="10.00">Shape.DrawPixel</text>
</a>
</g>
</g>
<!-- Node2 -->
<g id="node2" class="node"><title>Node2</title>
<g id="a_node2"><a xlink:href="class_bridge_pattern_example_1_1_correct_1_1_circle.html#ac7c3ccd88bf81d5b9f4fb758cec3fd12" target="_top" xlink:title=" ">
<polygon fill="white" stroke="black" points="0,-49.5 0,-79.5 152,-79.5 152,-49.5 0,-49.5"/>
<text text-anchor="start" x="8" y="-67.5" font-family="Helvetica,sans-Serif" font-size="10.00">BridgePatternExample.Correct.</text>
<text text-anchor="middle" x="76" y="-56.5" font-family="Helvetica,sans-Serif" font-size="10.00">Circle.Draw</text>
</a>
</g>
</g>
<!-- Node1&#45;&gt;Node2 -->
<g id="edge1" class="edge"><title>Node1&#45;&gt;Node2</title>
<path fill="none" stroke="midnightblue" d="M177.853,-50.9445C169.258,-52.0997 160.574,-53.267 152.095,-54.4066"/>
<polygon fill="midnightblue" stroke="midnightblue" points="178.438,-54.3974 187.883,-49.5964 177.506,-47.4598 178.438,-54.3974"/>
</g>
<!-- Node3 -->
<g id="node3" class="node"><title>Node3</title>
<g id="a_node3"><a xlink:href="class_bridge_pattern_example_1_1_correct_1_1_square.html#a7802971d2133fd5c7822ec08626ef3d4" target="_top" xlink:title=" ">
<polygon fill="white" stroke="black" points="0,-0.5 0,-30.5 152,-30.5 152,-0.5 0,-0.5"/>
<text text-anchor="start" x="8" y="-18.5" font-family="Helvetica,sans-Serif" font-size="10.00">BridgePatternExample.Correct.</text>
<text text-anchor="middle" x="76" y="-7.5" font-family="Helvetica,sans-Serif" font-size="10.00">Square.Draw</text>
</a>
</g>
</g>
<!-- Node1&#45;&gt;Node3 -->
<g id="edge2" class="edge"><title>Node1&#45;&gt;Node3</title>
<path fill="none" stroke="midnightblue" d="M177.853,-28.5133C169.258,-27.4043 160.574,-26.2837 152.095,-25.1897"/>
<polygon fill="midnightblue" stroke="midnightblue" points="177.517,-31.9989 187.883,-29.8075 178.413,-25.0564 177.517,-31.9989"/>
</g>
</g>
</svg>
