<?xml version="1.0" encoding="UTF-8" standalone="no"?>
<!DOCTYPE svg PUBLIC "-//W3C//DTD SVG 1.1//EN"
 "http://www.w3.org/Graphics/SVG/1.1/DTD/svg11.dtd">
<!-- Generated by graphviz version 2.38.0 (20140413.2041)
 -->
<!-- Title: BridgePatternExample.Correct.Red Pages: 1 -->
<svg width="177pt" height="160pt"
 viewBox="0.00 0.00 177.00 160.00" xmlns="http://www.w3.org/2000/svg" xmlns:xlink="http://www.w3.org/1999/xlink">
<g id="graph0" class="graph" transform="scale(1 1) rotate(0) translate(4 156)">
<title>BridgePatternExample.Correct.Red</title>
<polygon fill="white" stroke="none" points="-4,4 -4,-156 173,-156 173,4 -4,4"/>
<!-- Node1 -->
<g id="node1" class="node"><title>Node1</title>
<g id="a_node1"><a xlink:title=" ">
<polygon fill="#bfbfbf" stroke="black" points="0,-0.5 0,-57.5 169,-57.5 169,-0.5 0,-0.5"/>
<text text-anchor="middle" x="84.5" y="-45.5" font-family="Helvetica,sans-Serif" font-size="10.00">BridgePatternExample.Correct.Red</text>
<polyline fill="none" stroke="black" points="0,-38.5 169,-38.5 "/>
<text text-anchor="start" x="8" y="-26.5" font-family="Helvetica,sans-Serif" font-size="10.00">+ Color</text>
<polyline fill="none" stroke="black" points="0,-19.5 169,-19.5 "/>
<text text-anchor="middle" x="84.5" y="-7.5" font-family="Helvetica,sans-Serif" font-size="10.00"> </text>
</a>
</g>
</g>
<!-- Node2 -->
<g id="node2" class="node"><title>Node2</title>
<g id="a_node2"><a xlink:href="interface_bridge_pattern_example_1_1_correct_1_1_i_color_implementation.html" target="_top" xlink:title=" ">
<polygon fill="white" stroke="black" points="31,-94.5 31,-151.5 138,-151.5 138,-94.5 31,-94.5"/>
<text text-anchor="middle" x="84.5" y="-139.5" font-family="Helvetica,sans-Serif" font-size="10.00">IColorImplementation</text>
<polyline fill="none" stroke="black" points="31,-132.5 138,-132.5 "/>
<text text-anchor="start" x="39" y="-120.5" font-family="Helvetica,sans-Serif" font-size="10.00">+ Color</text>
<polyline fill="none" stroke="black" points="31,-113.5 138,-113.5 "/>
<text text-anchor="middle" x="84.5" y="-101.5" font-family="Helvetica,sans-Serif" font-size="10.00"> </text>
</a>
</g>
</g>
<!-- Node2&#45;&gt;Node1 -->
<g id="edge1" class="edge"><title>Node2&#45;&gt;Node1</title>
<path fill="none" stroke="midnightblue" d="M84.5,-84.2092C84.5,-75.2929 84.5,-65.9513 84.5,-57.5836"/>
<polygon fill="none" stroke="midnightblue" points="81.0001,-84.3969 84.5,-94.397 88.0001,-84.397 81.0001,-84.3969"/>
</g>
</g>
</svg>
