<?xml version="1.0" encoding="UTF-8" standalone="no"?>
<!DOCTYPE svg PUBLIC "-//W3C//DTD SVG 1.1//EN"
 "http://www.w3.org/Graphics/SVG/1.1/DTD/svg11.dtd">
<!-- Generated by graphviz version 2.38.0 (20140413.2041)
 -->
<!-- Title: BridgePatternExample.Correct.Shape Pages: 1 -->
<svg width="330pt" height="248pt"
 viewBox="0.00 0.00 330.00 248.00" xmlns="http://www.w3.org/2000/svg" xmlns:xlink="http://www.w3.org/1999/xlink">
<g id="graph0" class="graph" transform="scale(1 1) rotate(0) translate(4 244)">
<title>BridgePatternExample.Correct.Shape</title>
<polygon fill="white" stroke="none" points="-4,4 -4,-244 326,-244 326,4 -4,4"/>
<!-- Node1 -->
<g id="node1" class="node"><title>Node1</title>
<g id="a_node1"><a xlink:title=" ">
<polygon fill="#bfbfbf" stroke="black" points="85,-116.5 85,-239.5 237,-239.5 237,-116.5 85,-116.5"/>
<text text-anchor="start" x="93" y="-227.5" font-family="Helvetica,sans-Serif" font-size="10.00">BridgePatternExample.Correct.</text>
<text text-anchor="middle" x="161" y="-216.5" font-family="Helvetica,sans-Serif" font-size="10.00">Shape</text>
<polyline fill="none" stroke="black" points="85,-209.5 237,-209.5 "/>
<text text-anchor="start" x="93" y="-197.5" font-family="Helvetica,sans-Serif" font-size="10.00"># _drawing</text>
<text text-anchor="start" x="93" y="-186.5" font-family="Helvetica,sans-Serif" font-size="10.00"># _size</text>
<text text-anchor="start" x="93" y="-175.5" font-family="Helvetica,sans-Serif" font-size="10.00">&#45; _colorImplementation</text>
<polyline fill="none" stroke="black" points="85,-168.5 237,-168.5 "/>
<text text-anchor="start" x="93" y="-156.5" font-family="Helvetica,sans-Serif" font-size="10.00">+ Shape()</text>
<text text-anchor="start" x="93" y="-145.5" font-family="Helvetica,sans-Serif" font-size="10.00">+ DrawPixel()</text>
<text text-anchor="start" x="93" y="-134.5" font-family="Helvetica,sans-Serif" font-size="10.00">+ Draw()</text>
<text text-anchor="start" x="93" y="-123.5" font-family="Helvetica,sans-Serif" font-size="10.00">+ DepictInConsole()</text>
</a>
</g>
</g>
<!-- Node2 -->
<g id="node2" class="node"><title>Node2</title>
<g id="a_node2"><a xlink:href="class_bridge_pattern_example_1_1_correct_1_1_circle.html" target="_top" xlink:title=" ">
<polygon fill="white" stroke="black" points="0,-0.5 0,-79.5 152,-79.5 152,-0.5 0,-0.5"/>
<text text-anchor="start" x="8" y="-67.5" font-family="Helvetica,sans-Serif" font-size="10.00">BridgePatternExample.Correct.</text>
<text text-anchor="middle" x="76" y="-56.5" font-family="Helvetica,sans-Serif" font-size="10.00">Circle</text>
<polyline fill="none" stroke="black" points="0,-49.5 152,-49.5 "/>
<text text-anchor="middle" x="76" y="-37.5" font-family="Helvetica,sans-Serif" font-size="10.00"> </text>
<polyline fill="none" stroke="black" points="0,-30.5 152,-30.5 "/>
<text text-anchor="start" x="8" y="-18.5" font-family="Helvetica,sans-Serif" font-size="10.00">+ Circle()</text>
<text text-anchor="start" x="8" y="-7.5" font-family="Helvetica,sans-Serif" font-size="10.00">+ Draw()</text>
</a>
</g>
</g>
<!-- Node1&#45;&gt;Node2 -->
<g id="edge1" class="edge"><title>Node1&#45;&gt;Node2</title>
<path fill="none" stroke="midnightblue" d="M117.668,-107.67C111.623,-97.9961 105.599,-88.3585 100.088,-79.5403"/>
<polygon fill="none" stroke="midnightblue" points="114.707,-109.535 122.975,-116.16 120.643,-105.825 114.707,-109.535"/>
</g>
<!-- Node3 -->
<g id="node3" class="node"><title>Node3</title>
<g id="a_node3"><a xlink:href="class_bridge_pattern_example_1_1_correct_1_1_square.html" target="_top" xlink:title=" ">
<polygon fill="white" stroke="black" points="170,-0.5 170,-79.5 322,-79.5 322,-0.5 170,-0.5"/>
<text text-anchor="start" x="178" y="-67.5" font-family="Helvetica,sans-Serif" font-size="10.00">BridgePatternExample.Correct.</text>
<text text-anchor="middle" x="246" y="-56.5" font-family="Helvetica,sans-Serif" font-size="10.00">Square</text>
<polyline fill="none" stroke="black" points="170,-49.5 322,-49.5 "/>
<text text-anchor="middle" x="246" y="-37.5" font-family="Helvetica,sans-Serif" font-size="10.00"> </text>
<polyline fill="none" stroke="black" points="170,-30.5 322,-30.5 "/>
<text text-anchor="start" x="178" y="-18.5" font-family="Helvetica,sans-Serif" font-size="10.00">+ Square()</text>
<text text-anchor="start" x="178" y="-7.5" font-family="Helvetica,sans-Serif" font-size="10.00">+ Draw()</text>
</a>
</g>
</g>
<!-- Node1&#45;&gt;Node3 -->
<g id="edge2" class="edge"><title>Node1&#45;&gt;Node3</title>
<path fill="none" stroke="midnightblue" d="M204.332,-107.67C210.377,-97.9961 216.401,-88.3585 221.912,-79.5403"/>
<polygon fill="none" stroke="midnightblue" points="201.357,-105.825 199.025,-116.16 207.293,-109.535 201.357,-105.825"/>
</g>
</g>
</svg>
