<?xml version="1.0" encoding="UTF-8" standalone="no"?>
<!DOCTYPE svg PUBLIC "-//W3C//DTD SVG 1.1//EN"
 "http://www.w3.org/Graphics/SVG/1.1/DTD/svg11.dtd">
<!-- Generated by graphviz version 2.38.0 (20140413.2041)
 -->
<!-- Title: BridgePatternExample.Correct.IColorImplementation Pages: 1 -->
<svg width="366pt" height="171pt"
 viewBox="0.00 0.00 366.00 171.00" xmlns="http://www.w3.org/2000/svg" xmlns:xlink="http://www.w3.org/1999/xlink">
<g id="graph0" class="graph" transform="scale(1 1) rotate(0) translate(4 167)">
<title>BridgePatternExample.Correct.IColorImplementation</title>
<polygon fill="white" stroke="none" points="-4,4 -4,-167 362,-167 362,4 -4,4"/>
<!-- Node1 -->
<g id="node1" class="node"><title>Node1</title>
<g id="a_node1"><a xlink:title=" ">
<polygon fill="#bfbfbf" stroke="black" points="103.5,-94.5 103.5,-162.5 255.5,-162.5 255.5,-94.5 103.5,-94.5"/>
<text text-anchor="start" x="111.5" y="-150.5" font-family="Helvetica,sans-Serif" font-size="10.00">BridgePatternExample.Correct.</text>
<text text-anchor="middle" x="179.5" y="-139.5" font-family="Helvetica,sans-Serif" font-size="10.00">IColorImplementation</text>
<polyline fill="none" stroke="black" points="103.5,-132.5 255.5,-132.5 "/>
<text text-anchor="start" x="111.5" y="-120.5" font-family="Helvetica,sans-Serif" font-size="10.00">+ Color</text>
<polyline fill="none" stroke="black" points="103.5,-113.5 255.5,-113.5 "/>
<text text-anchor="middle" x="179.5" y="-101.5" font-family="Helvetica,sans-Serif" font-size="10.00"> </text>
</a>
</g>
</g>
<!-- Node2 -->
<g id="node2" class="node"><title>Node2</title>
<g id="a_node2"><a xlink:href="class_bridge_pattern_example_1_1_correct_1_1_blue.html" target="_top" xlink:title=" ">
<polygon fill="white" stroke="black" points="0,-0.5 0,-57.5 171,-57.5 171,-0.5 0,-0.5"/>
<text text-anchor="middle" x="85.5" y="-45.5" font-family="Helvetica,sans-Serif" font-size="10.00">BridgePatternExample.Correct.Blue</text>
<polyline fill="none" stroke="black" points="0,-38.5 171,-38.5 "/>
<text text-anchor="start" x="8" y="-26.5" font-family="Helvetica,sans-Serif" font-size="10.00">+ Color</text>
<polyline fill="none" stroke="black" points="0,-19.5 171,-19.5 "/>
<text text-anchor="middle" x="85.5" y="-7.5" font-family="Helvetica,sans-Serif" font-size="10.00"> </text>
</a>
</g>
</g>
<!-- Node1&#45;&gt;Node2 -->
<g id="edge1" class="edge"><title>Node1&#45;&gt;Node2</title>
<path fill="none" stroke="midnightblue" d="M140.524,-87.0726C131.021,-77.2161 121.068,-66.8919 112.279,-57.7765"/>
<polygon fill="none" stroke="midnightblue" points="138.215,-89.7211 147.676,-94.4909 143.255,-84.8626 138.215,-89.7211"/>
</g>
<!-- Node3 -->
<g id="node3" class="node"><title>Node3</title>
<g id="a_node3"><a xlink:href="class_bridge_pattern_example_1_1_correct_1_1_red.html" target="_top" xlink:title=" ">
<polygon fill="white" stroke="black" points="189,-0.5 189,-57.5 358,-57.5 358,-0.5 189,-0.5"/>
<text text-anchor="middle" x="273.5" y="-45.5" font-family="Helvetica,sans-Serif" font-size="10.00">BridgePatternExample.Correct.Red</text>
<polyline fill="none" stroke="black" points="189,-38.5 358,-38.5 "/>
<text text-anchor="start" x="197" y="-26.5" font-family="Helvetica,sans-Serif" font-size="10.00">+ Color</text>
<polyline fill="none" stroke="black" points="189,-19.5 358,-19.5 "/>
<text text-anchor="middle" x="273.5" y="-7.5" font-family="Helvetica,sans-Serif" font-size="10.00"> </text>
</a>
</g>
</g>
<!-- Node1&#45;&gt;Node3 -->
<g id="edge2" class="edge"><title>Node1&#45;&gt;Node3</title>
<path fill="none" stroke="midnightblue" d="M218.476,-87.0726C227.979,-77.2161 237.932,-66.8919 246.721,-57.7765"/>
<polygon fill="none" stroke="midnightblue" points="215.745,-84.8626 211.324,-94.4909 220.785,-89.7211 215.745,-84.8626"/>
</g>
</g>
</svg>
